# xmcd CD database file
#
# Track frame offsets:
#	150
#	19190
#	51640
#	75757
#	102677
#	124450
#	139395
#	163677
#	184905
#	200217
#	219107
#	239850
#	266002
#	291062
#	317680
#
# Disc length: 4625 seconds
#
# Revision: 2
# Processed by: cddbd v1.5.1PL0 Copyright (c) Steve Scherf et al.
# Submitted via: CDex 1.51
#
DISCID=ef120f0f
DTITLE=Various Artist - Slow Burn
DYEAR=1997
DGENRE=Blues
TTITLE0=Tutu Jones - I Still Love You
TTITLE1=Phil Guy with Bubby Guy - Garbage Man Blues
TTITLE2=Larry Garner - Doghouse Blues
TTITLE3=Carey Bell - I'm Going Upstairs
TTITLE4=Jimmy Witherspoon - Just A Dream
TTITLE5=Jimmy Rogers - Fishin' In My Pond
TTITLE6=Buddy Guy - D.J. Play My Blues
TTITLE7=Champion Jack Dupree - Sweet Little Woman
TTITLE8=The Butler Twins - Livin' In Paradise
TTITLE9=Charlie Sayles - Jimi Hendrix
TTITLE10=Kenny Parker with Darrell Nulisch - Take It Easy On A Fool
TTITLE11=U.P. Wilson - Your Last Chance
TTITLE12=Louisiana Red - Hello, Mean Old World
TTITLE13=Byther Smith - I Wish My Mother Was Here
TTITLE14=Mojo Buford - Jealous Of My Baby
EXTD=YEAR: 1997
EXTT0=Tutu Jones
EXTT1=Phil Guy with Buddy Guy
EXTT2=Larry Garner
EXTT3=Carey Bell
EXTT4=Jimmy Witherspoon
EXTT5=Jimmy Rogers
EXTT6=Buddy Guy
EXTT7=Champion Jack Dupree (with The Big Town Playboys)
EXTT8=The Butler Twins
EXTT9=Charlie Sayles
EXTT10=Kenny Parker with Darrell Nulisch
EXTT11=U.P. Wilson
EXTT12=Louisiana Red
EXTT13=Byther Smith
EXTT14=Mojo Buford
PLAYORDER=
